<svg width="97" height="25" viewBox="0 0 97 25" fill="none" xmlns="http://www.w3.org/2000/svg">
<path d="M10.4688 0.90625C11.1979 0.90625 11.8542 1.03125 12.4375 1.28125C13.0417 1.51042 13.5938 1.77083 14.0938 2.0625C14.6146 2.35417 15.1042 2.625 15.5625 2.875C16.0208 3.10417 16.4896 3.21875 16.9688 3.21875C17.3438 3.19792 17.7708 3.14583 18.25 3.0625C18.6667 2.97917 19.1458 2.85417 19.6875 2.6875C20.25 2.5 20.875 2.22917 21.5625 1.875C20.875 2.54167 20.3125 3.10417 19.875 3.5625C19.4583 4 19.1354 4.36458 18.9062 4.65625C18.6354 4.98958 18.4375 5.25 18.3125 5.4375C18.1875 5.66667 18 6.01042 17.75 6.46875C17.5208 6.88542 17.2083 7.44792 16.8125 8.15625C16.4167 8.84375 15.9167 9.75 15.3125 10.875C15.3125 9.4375 15.1667 8.32292 14.875 7.53125C14.6042 6.73958 14.3021 6.13542 13.9688 5.71875C13.5729 5.23958 13.125 4.9375 12.625 4.8125C12.1667 4.75 11.7083 4.83333 11.25 5.0625C10.7917 5.27083 10.3333 5.58333 9.875 6C9.4375 6.41667 9.01042 6.91667 8.59375 7.5C8.19792 8.0625 7.83333 8.65625 7.5 9.28125C7.1875 9.90625 6.92708 10.5417 6.71875 11.1875C6.51042 11.8125 6.375 12.3958 6.3125 12.9375C6.25 13.4167 6.23958 13.9792 6.28125 14.625C6.32292 15.25 6.41667 15.8958 6.5625 16.5625C6.70833 17.2083 6.89583 17.8438 7.125 18.4688C7.35417 19.0938 7.63542 19.6562 7.96875 20.1562C8.32292 20.6354 8.71875 21.0312 9.15625 21.3438C9.59375 21.6354 10.0938 21.7708 10.6562 21.75C11.2812 21.7083 11.8958 21.5208 12.5 21.1875C13.0208 20.9167 13.5521 20.5 14.0938 19.9375C14.6354 19.3542 15.1042 18.5312 15.5 17.4688L20.125 18.3125C18.7917 19.9375 17.4896 21.1562 16.2188 21.9688C14.9688 22.7812 13.8438 23.3542 12.8438 23.6875C11.6771 24.0625 10.5729 24.2396 9.53125 24.2188C8.21875 24.0729 6.98958 23.6771 5.84375 23.0312C4.69792 22.3854 3.70833 21.6042 2.875 20.6875C2.0625 19.75 1.42708 18.7292 0.96875 17.625C0.510417 16.5208 0.3125 15.4375 0.375 14.375C0.416667 13.6667 0.5625 12.8438 0.8125 11.9062C1.0625 10.9479 1.39583 9.96875 1.8125 8.96875C2.25 7.96875 2.77083 6.98958 3.375 6.03125C3.97917 5.07292 4.64583 4.21875 5.375 3.46875C6.10417 2.69792 6.89583 2.08333 7.75 1.625C8.625 1.14583 9.53125 0.90625 10.4688 0.90625Z" fill="#E038F0"/>
<path d="M35.8387 0.4375C36.9637 0.479167 38.0992 0.6875 39.245 1.0625C40.4117 1.41667 41.4846 2 42.4637 2.8125C43.4429 3.60417 44.2762 4.63542 44.9637 5.90625C45.6512 7.15625 46.0783 8.6875 46.245 10.5C46.3908 11.9792 46.2033 13.4479 45.6825 14.9062C45.1825 16.3438 44.4846 17.6667 43.5887 18.875C42.6929 20.0833 41.6617 21.1146 40.495 21.9688C39.3283 22.8021 38.1617 23.3542 36.995 23.625C36.2867 23.7917 35.5054 23.8125 34.6512 23.6875C33.8179 23.5417 32.9637 23.2812 32.0887 22.9062C31.2346 22.5104 30.3908 22.0104 29.5575 21.4062C28.745 20.8021 28.0054 20.1146 27.3387 19.3438C26.6721 18.5521 26.1096 17.6979 25.6512 16.7812C25.2137 15.8646 24.9429 14.9062 24.8387 13.9062C24.7346 13.0729 24.7242 12.1562 24.8075 11.1562C24.9117 10.1354 25.1096 9.125 25.4012 8.125C25.7137 7.10417 26.1408 6.125 26.6825 5.1875C27.245 4.22917 27.9533 3.39583 28.8075 2.6875C29.6617 1.95833 30.6617 1.39583 31.8075 1C32.9742 0.583333 34.3179 0.395833 35.8387 0.4375ZM30.245 13.0938C29.9533 15.3229 30.1617 17.1146 30.87 18.4688C31.5992 19.8229 32.6929 20.6458 34.1512 20.9375C34.8596 21.0833 35.5367 20.9375 36.1825 20.5C36.8492 20.0417 37.4533 19.3854 37.995 18.5312C38.5367 17.6771 39.0054 16.6771 39.4012 15.5312C39.7971 14.3854 40.0887 13.1875 40.2762 11.9375C40.4637 10.6875 40.4742 9.5625 40.3075 8.5625C40.1617 7.54167 39.9012 6.67708 39.5262 5.96875C39.1512 5.23958 38.6929 4.67708 38.1512 4.28125C37.6304 3.88542 37.0887 3.66667 36.5262 3.625C35.5471 3.5625 34.6929 3.82292 33.9637 4.40625C33.2346 4.96875 32.62 5.70833 32.12 6.625C31.62 7.54167 31.2137 8.57292 30.9012 9.71875C30.6096 10.8646 30.3908 11.9896 30.245 13.0938ZM63.7712 0.4375C64.8962 0.479167 66.0317 0.6875 67.1775 1.0625C68.3442 1.41667 69.4171 2 70.3962 2.8125C71.3754 3.60417 72.2087 4.63542 72.8962 5.90625C73.5837 7.15625 74.0108 8.6875 74.1775 10.5C74.3233 11.9792 74.1358 13.4479 73.615 14.9062C73.115 16.3438 72.4171 17.6667 71.5212 18.875C70.6254 20.0833 69.5942 21.1146 68.4275 21.9688C67.2608 22.8021 66.0942 23.3542 64.9275 23.625C64.2192 23.7917 63.4379 23.8125 62.5837 23.6875C61.7504 23.5417 60.8962 23.2812 60.0212 22.9062C59.1671 22.5104 58.3233 22.0104 57.49 21.4062C56.6775 20.8021 55.9379 20.1146 55.2712 19.3438C54.6046 18.5521 54.0421 17.6979 53.5837 16.7812C53.1462 15.8646 52.8754 14.9062 52.7712 13.9062C52.6671 13.0729 52.6567 12.1562 52.74 11.1562C52.8442 10.1354 53.0421 9.125 53.3337 8.125C53.6462 7.10417 54.0733 6.125 54.615 5.1875C55.1775 4.22917 55.8858 3.39583 56.74 2.6875C57.5942 1.95833 58.5942 1.39583 59.74 1C60.9067 0.583333 62.2504 0.395833 63.7712 0.4375ZM58.1775 13.0938C57.8858 15.3229 58.0942 17.1146 58.8025 18.4688C59.5317 19.8229 60.6254 20.6458 62.0837 20.9375C62.7921 21.0833 63.4692 20.9375 64.115 20.5C64.7817 20.0417 65.3858 19.3854 65.9275 18.5312C66.4692 17.6771 66.9379 16.6771 67.3337 15.5312C67.7296 14.3854 68.0212 13.1875 68.2087 11.9375C68.3962 10.6875 68.4067 9.5625 68.24 8.5625C68.0942 7.54167 67.8337 6.67708 67.4587 5.96875C67.0837 5.23958 66.6254 4.67708 66.0837 4.28125C65.5629 3.88542 65.0212 3.66667 64.4587 3.625C63.4796 3.5625 62.6254 3.82292 61.8962 4.40625C61.1671 4.96875 60.5525 5.70833 60.0525 6.625C59.5525 7.54167 59.1462 8.57292 58.8337 9.71875C58.5421 10.8646 58.3233 11.9896 58.1775 13.0938ZM80.2975 1.34375C80.9017 1.44792 81.4329 1.52083 81.8913 1.5625C82.3704 1.60417 82.7663 1.63542 83.0788 1.65625C83.4538 1.67708 83.7767 1.6875 84.0475 1.6875C84.3183 1.6875 84.7038 1.66667 85.2038 1.625C85.6204 1.58333 86.1621 1.53125 86.8288 1.46875C87.5163 1.40625 88.36 1.30208 89.36 1.15625C89.0683 1.23958 88.7975 1.47917 88.5475 1.875C88.3183 2.25 88.11 2.65625 87.9225 3.09375C87.6933 3.61458 87.4954 4.1875 87.3288 4.8125C87.1829 5.375 86.9954 6.14583 86.7663 7.125C86.5579 8.10417 86.3496 9.16667 86.1413 10.3125C85.9538 11.4583 85.8079 12.625 85.7038 13.8125C85.5996 14.9792 85.5788 16.0521 85.6413 17.0312C85.7246 18.0104 85.9225 18.8229 86.235 19.4688C86.5475 20.0938 87.0267 20.4271 87.6725 20.4688C88.6517 20.5521 89.4642 20.5625 90.11 20.5C90.7767 20.4167 91.3183 20.3021 91.735 20.1562C92.1517 20.0104 92.4746 19.8438 92.7038 19.6562C92.9329 19.4479 93.11 19.25 93.235 19.0625C93.5683 18.5833 93.9121 17.9688 94.2663 17.2188C94.6204 16.4688 94.9329 15.75 95.2038 15.0625C95.4954 14.375 95.735 13.7917 95.9225 13.3125C96.11 12.8333 96.2038 12.6042 96.2038 12.625C96.2038 12.6667 96.1933 12.9062 96.1725 13.3438C96.1725 13.7604 96.1621 14.2708 96.1413 14.875C96.1413 15.4583 96.1308 16.0729 96.11 16.7188C96.11 17.3646 96.0996 17.9167 96.0788 18.375C96.0579 18.75 96.0371 19.1667 96.0163 19.625C95.9954 20.0208 95.9746 20.4896 95.9538 21.0312C95.9538 21.5729 95.9329 22.1667 95.8913 22.8125C95.0163 22.75 94.1829 22.7083 93.3913 22.6875C92.5996 22.6667 91.9017 22.6562 91.2975 22.6562C90.5892 22.6562 89.9329 22.6667 89.3288 22.6875C88.6829 22.7083 87.9329 22.7396 87.0788 22.7812C86.3496 22.8229 85.4433 22.875 84.36 22.9375C83.2767 22.9792 82.0267 23.0417 80.61 23.125C80.7767 22.8333 80.9121 22.5625 81.0163 22.3125C81.1413 22.0625 81.235 21.8542 81.2975 21.6875C81.3808 21.4792 81.4329 21.3021 81.4538 21.1562C81.5788 20.4896 81.6829 19.6458 81.7663 18.625C81.8496 17.5833 81.9121 16.4792 81.9538 15.3125C82.0163 14.1458 82.0475 12.9583 82.0475 11.75C82.0683 10.5208 82.0683 9.38542 82.0475 8.34375C82.0267 7.30208 81.985 6.39583 81.9225 5.625C81.8808 4.85417 81.8183 4.32292 81.735 4.03125C81.6308 3.69792 81.5058 3.36458 81.36 3.03125C81.235 2.73958 81.0788 2.44792 80.8913 2.15625C80.7246 1.84375 80.5267 1.57292 80.2975 1.34375Z" fill="white"/>
</svg>
